<?xml version="1.0" encoding="utf-8"?>
<!DOCTYPE svg PUBLIC "-//W3C//DTD SVG 1.0//EN" "http://www.w3.org/TR/2001/REC-SVG-20010904/DTD/svg10.dtd">
<svg version="1.0" xmlns="http://www.w3.org/2000/svg" width="260px" height="250px" viewBox="0 0 260 250" preserveAspectRatio="xMidYMid meet">
 <g fill="#392c1f">
  <path d="M101 223.2 c-6.5 -3.2 -7.7 -9.9 -5.2 -27.7 0.7 -4.4 1.9 -13.6 2.7 -20.5 0.8 -6.9 1.8 -14.2 2.1 -16.2 l0.6 -3.8 -3.9 0 c-5.9 0 -13 -2.8 -15.3 -5.9 -3.4 -4.9 -3.8 -12.7 -2.9 -51.1 1 -41.5 1.8 -48.9 5.6 -53.8 4.6 -6.1 5.2 -6.2 48 -6.2 42.7 0 43.1 0.1 47.7 6.3 1.8 2.4 2.1 4.3 2.1 13 0 7.2 -0.4 11 -1.5 12.8 -0.8 1.5 -8.4 14.1 -16.8 28 l-15.4 25.4 7.4 0.6 c9.3 0.7 13.1 2.6 15.2 7.9 1.8 4.5 2.1 12.5 0.7 16.3 -0.5 1.3 -13.1 18.6 -27.9 38.4 -28.5 38 -28.8 38.3 -36.6 38.3 -1.7 0 -4.7 -0.8 -6.6 -1.8z m33.7 -47.5 c25 -33.4 27.2 -36.9 24 -39.5 -0.8 -0.7 -6.9 -1.3 -14.8 -1.4 l-13.4 -0.3 -0.3 -3.2 c-0.3 -2.6 2.8 -8.5 17.3 -33 9.7 -16.4 18.8 -31.4 20.1 -33.4 2.1 -3 2.5 -4.7 2.2 -9 -0.3 -4.5 -0.7 -5.5 -2.8 -6.6 -1.9 -0.9 -10.9 -1.3 -35.3 -1.3 -37.1 0 -37.9 0.1 -39.6 6.8 -1.2 4.7 -3.6 75.6 -2.7 80.5 1 5.5 3.6 6.7 13.8 6.7 8.4 0 8.8 0.1 9.4 2.4 0.3 1.3 -0.4 10 -1.6 19.3 -6.5 50.4 -6.5 49.7 -3.2 47.1 0.9 -0.7 12.9 -16.5 26.9 -35.1z"/>
 </g>
 <g fill="#4e3c2a">
  <path d="M102.4 212.5 c-0.6 -2.4 0.5 -13.3 5 -47.5 1.3 -9.6 2.1 -18.1 1.9 -18.7 -0.4 -0.9 -3.2 -1.3 -9.3 -1.3 -11.8 0 -13.2 -1.1 -13.8 -10.6 -0.7 -10 1.8 -78.2 2.9 -82.6 1.7 -6.7 2.2 -6.8 42.6 -6.8 26.8 0 36.4 0.3 38.3 1.3 2.3 1.2 2.5 1.8 2.8 9.5 0.3 7.8 0.1 8.6 -2.7 13 -8.4 12.9 -36.8 61.8 -36.4 62.5 0.2 0.4 6.4 0.7 13.7 0.7 8.9 0 13.6 0.4 14.4 1.2 0.7 0.7 1.2 3.6 1.2 6.5 l0 5.3 -24.1 32.2 c-13.3 17.8 -25.3 33.5 -26.7 35.1 -3.5 3.7 -8.9 3.8 -9.8 0.2z"/>
 </g>
</svg>