<?xml version="1.0" encoding="utf-8"?>
<!DOCTYPE svg PUBLIC "-//W3C//DTD SVG 1.0//EN" "http://www.w3.org/TR/2001/REC-SVG-20010904/DTD/svg10.dtd">
<svg version="1.0" xmlns="http://www.w3.org/2000/svg" width="260px" height="250px" viewBox="0 0 260 250" preserveAspectRatio="xMidYMid meet">
 <g fill="#392c1f">
  <path d="M50.8 225.9 c-8.4 -2.4 -11.4 -11 -10.5 -30.1 0.7 -13.2 2.1 -17.5 7.5 -23.1 4.8 -4.9 16.5 -8.7 26.8 -8.7 6.7 0 7 -0.1 8.8 -3 1 -1.7 4.3 -6.3 7.5 -10.3 6.9 -8.8 8.3 -10.9 10.3 -16.7 2.8 -7.9 3.7 -13.2 4.4 -26.1 l0.7 -12.6 -6.6 -4.7 c-7.4 -5.3 -15 -13.2 -17.7 -18.5 -3.6 -7.3 -5.1 -24.1 -3 -35.2 0.8 -4.2 1.8 -6.1 4.5 -8.6 3.4 -3.2 3.7 -3.3 12.1 -3.3 8.6 0 8.7 0 11.9 3.4 3.6 3.9 4.5 7.4 4.5 18.8 l0 7.7 5.2 -3.4 c8.7 -5.8 13.4 -6.9 26.7 -6.2 18.1 0.9 25.9 4.2 36.7 15.4 13.4 13.8 17.8 27.6 17.7 55.3 0 18.7 -1.5 27.4 -6.5 37.5 -3.4 6.7 -12.3 19.6 -16.5 23.7 -11.9 11.5 -19.9 17.4 -30.8 22.6 -11.7 5.7 -18.4 7.2 -32.2 7.2 -10.5 0 -13.4 -0.4 -20 -2.6 -4.3 -1.4 -10.1 -2.8 -12.9 -3.1 l-5.1 -0.6 -0.5 8.6 c-0.5 9.5 -1.9 12.7 -6.9 15.2 -3.9 2.1 -11.4 2.7 -16.1 1.4z m8 -12.7 c1.9 -1.3 3.2 -7 3.2 -14.4 0 -6.3 0.2 -6.8 3.1 -8.8 2.7 -2 4 -2.2 12.2 -1.8 6.3 0.4 11.7 1.4 17.1 3.2 10 3.3 24.2 3.7 32.7 0.7 17 -5.8 35.1 -19.4 45.4 -34.1 7 -10 9 -14.2 11.6 -24.1 1.9 -7.4 2.1 -10 1.5 -21.4 -0.7 -13.9 -3 -25.5 -6.4 -32.1 -3.7 -7.3 -12.9 -17.1 -18.5 -19.9 -7.4 -3.5 -21.6 -5.9 -27 -4.4 -5.9 1.6 -15.6 7.8 -17.3 11.1 -2.1 4 -7.9 4 -11.6 0 -4.4 -4.6 -5.2 -7.2 -5.3 -17.2 -0.2 -11.6 -0.9 -13.8 -4.2 -14.6 -4.6 -1.2 -6.3 2.3 -6.3 12.5 0 15.2 4 22 19 32.6 6.2 4.3 8 6.2 8.5 8.7 1.1 4.7 -0.5 32.4 -2.2 39.3 -3.3 13.4 -5.5 18.1 -13.9 28.5 -2.8 3.6 -6.8 9.1 -8.8 12.3 l-3.7 5.7 -9.2 0 c-15.7 0 -24.4 3.9 -26.8 12 -1.5 5 -0.8 23.2 1 25.3 1.5 1.8 3.8 2.2 5.9 0.9z"/>
 </g>
 <g fill="#4e3c2a">
  <path d="M49.9 215.3 c-1.8 -2.1 -2.5 -26.2 -1 -31.3 2.4 -8.1 11.1 -12 26.8 -12 l9.2 0 3.7 -5.7 c2 -3.2 6 -8.7 8.8 -12.3 8.5 -10.6 10.8 -15.5 14 -29 1.7 -7.5 3.1 -29.3 2.1 -33.3 -0.5 -1.9 -3.1 -4.4 -8.5 -8.2 -4.4 -3.1 -9.7 -7.6 -11.9 -10.1 -5.7 -6.5 -7.1 -11.5 -7.1 -25.4 0 -14.4 0.8 -16 8 -16 2.9 0 5.4 0.6 6.3 1.4 1.7 1.7 2.8 9.5 2.6 17.7 -0.2 6 0.9 8.9 4.9 13.1 3.2 3.5 3.8 3.5 5.6 0 2 -3.8 12.3 -10 19 -11.4 4.5 -1 7.4 -0.9 15.7 0.5 13.7 2.2 19.2 5 26.4 13.4 10.5 12.3 13.2 21.1 14.2 45.8 0.5 14.4 0.4 16.8 -1.6 24.4 -1.2 4.6 -3.1 10.2 -4.3 12.5 -8.1 16 -24.9 32.5 -41.8 41.1 -10.8 5.5 -15.4 6.5 -29 6.5 -11 0 -13.8 -0.3 -20.6 -2.6 -4.4 -1.4 -10.7 -2.8 -14.1 -3.1 -5.2 -0.5 -6.6 -0.2 -9.2 1.6 -2.9 2.1 -3.1 2.6 -3.1 8.9 0 7.4 -1.3 13.1 -3.2 14.4 -2.4 1.5 -10.5 0.9 -11.9 -0.9z"/>
 </g>
</svg>