<?xml version="1.0" encoding="utf-8"?>
<!DOCTYPE svg PUBLIC "-//W3C//DTD SVG 1.0//EN" "http://www.w3.org/TR/2001/REC-SVG-20010904/DTD/svg10.dtd">
<svg version="1.0" xmlns="http://www.w3.org/2000/svg" width="260px" height="250px" viewBox="0 0 260 250" preserveAspectRatio="xMidYMid meet">
 <g fill="#392c1f">
  <path d="M108.5 211.1 c-16.9 -4.9 -26.7 -14.9 -30 -30.8 -3.5 -16.5 -0.1 -33.7 8.6 -42.8 l2.8 -3 0.3 -47.2 0.3 -47.3 2.8 -2.7 c2.5 -2.6 3.4 -2.8 10.5 -2.8 5.3 0 8.9 0.5 11.3 1.7 1.9 0.9 4.2 1.9 5.2 2.2 1.7 0.5 1.7 3.6 1.5 57 -0.3 55.4 -0.3 56.5 -2.4 59.2 -1.1 1.6 -3.4 3.5 -5 4.4 -1.6 0.9 -3.6 3.2 -4.6 5.1 -1.4 3 -1.4 3.8 -0.2 6.9 2 4.8 4.2 7 9.2 9.1 5.5 2.4 7.2 2.4 13.1 -0.2 4.9 -2.1 9.1 -7.4 9.1 -11.6 0 -4.2 -2.1 -8 -5.2 -9.4 -1.7 -0.8 -4.1 -2.7 -5.2 -4.2 -2 -2.8 -2.1 -4.2 -2.6 -56.5 -0.3 -29.5 -0.3 -55 0 -56.7 0.4 -2.2 1.2 -3.1 3 -3.3 1.4 -0.2 3.3 -1.1 4.4 -2 1.4 -1.3 3.8 -1.7 10.2 -1.7 7.8 0 8.5 0.2 11.1 2.8 l2.8 2.7 0.3 47.3 0.3 47.2 2.8 3 c5.7 6 10.1 18.5 10.1 29.2 0 7.2 -2.6 18.8 -5.5 24.9 -4.5 9.3 -14.5 16.5 -27.2 19.8 -8.2 2.1 -24 2 -31.8 -0.3z m34.5 -13.5 c10 -5.1 14.7 -11.1 16.9 -21.4 2.6 -12.6 0 -23.5 -7.5 -31.1 l-4.4 -4.4 0 -47.3 0 -47.4 -2.5 0 -2.5 0 0 48.3 c0 26.5 0.4 48.7 0.8 49.2 0.4 0.6 2.1 1.7 3.7 2.6 1.8 1 4.1 3.8 5.8 6.9 2.4 4.7 2.7 6.4 2.7 14.4 -0.1 14.3 -3.8 21.4 -13.8 26.3 -5.2 2.6 -6.6 2.8 -17.2 2.8 -9.7 0 -12.2 -0.4 -16.3 -2.3 -9.7 -4.4 -14.7 -12.7 -15.4 -25.6 -0.5 -7.7 -0.3 -8.4 2.9 -14.6 2.5 -4.8 4.2 -6.9 7.1 -8.3 l3.7 -1.9 0 -48.9 0 -48.9 -2.5 0 -2.5 0 0 47.5 0 47.5 -4.4 4.3 c-14.7 14.3 -10.5 42.1 7.8 51.4 7.8 4 9.3 4.3 21.1 4 9.8 -0.3 11.6 -0.6 16.5 -3.1z"/>
  <path d="M182 132.1 c-7.6 -1.6 -10.6 -5.9 -9.7 -13.7 0.9 -8.2 5.6 -11 18.5 -10.6 10.2 0.2 14.5 4.2 14.4 13.1 -0.1 5 -1.5 7.7 -5 9.5 -3.5 1.8 -13.5 2.7 -18.2 1.7z m10.5 -12.1 c-0.3 -0.5 -2.2 -1 -4.1 -1 -1.9 0 -3.4 0.5 -3.4 1 0 0.6 1.8 1 4.1 1 2.4 0 3.8 -0.4 3.4 -1z"/>
  <path d="M181.6 94 c-5.5 -1.7 -8.4 -6.5 -7.7 -13 1.1 -10.5 19.7 -14.6 27.4 -6 3.9 4.4 3.9 11.7 -0.2 16.2 -2.6 3 -3.4 3.2 -9.7 3.5 -3.8 0.1 -8.2 -0.2 -9.8 -0.7z"/>
  <path d="M184.9 58.9 c-8.5 -1.3 -12.7 -6.3 -11.3 -13.5 1.2 -6.4 6 -9.4 15 -9.4 9.5 0 13.4 3.6 13.4 12.5 0 8.2 -6.3 12 -17.1 10.4z"/>
 </g>
 <g fill="#f6eded">
  <path d="M110 203.1 c-16.4 -5.3 -24.2 -16.6 -24.3 -35.1 -0.1 -12 2.5 -19.5 8.9 -25.7 l4.4 -4.3 0 -47.5 0 -47.5 5.5 0 5.5 0 0 51.9 0 51.9 -3.7 1.9 c-2.9 1.4 -4.6 3.5 -7.1 8.3 -3 5.8 -3.3 7.1 -2.8 11.9 1.2 10.4 6.6 18.4 15.3 22.3 7.5 3.4 19.9 3.2 27.5 -0.5 9.2 -4.5 13.7 -12.1 13.8 -23.3 0 -7.4 -3.8 -15.8 -8.5 -18.3 -1.6 -0.9 -3.3 -2 -3.7 -2.6 -0.4 -0.5 -0.8 -24.1 -0.8 -52.2 l0 -51.3 5.5 0 5.5 0 0 47.4 0 47.3 4.4 4.4 c5.9 6 8.6 13.5 8.6 23.9 0 18.7 -4.7 27.8 -18 34.6 -5.2 2.7 -6.3 2.9 -19.5 3.1 -7.7 0.1 -15.1 -0.1 -16.5 -0.6z"/>
  <path d="M115.5 183.1 c-2.2 -1 -4.8 -2.7 -5.7 -3.8 -2.4 -2.7 -4.8 -8.7 -4.8 -12 0.1 -4.2 3.1 -9.4 6.4 -11.3 1.6 -0.9 3.9 -2.8 5 -4.4 2.1 -2.7 2.1 -3.8 2.4 -55.8 0.2 -42.6 0 -53.5 -1.1 -55.6 l-1.3 -2.7 8.1 0.3 8.2 0.3 -1.1 4.7 c-0.8 3.2 -0.9 20.8 -0.6 55.4 0.5 49.3 0.6 50.7 2.6 53.5 1.1 1.5 3.5 3.4 5.2 4.2 5.5 2.5 7.2 13.8 3 21.2 -4 7.1 -17.1 10.1 -26.3 6z"/>
  <path d="M181.3 123.4 c-1.6 -0.7 -1.7 -4.6 -0.1 -6.2 1.4 -1.4 12.6 -1.6 14.6 -0.3 0.8 0.5 1.2 2.1 1 3.7 -0.3 2.9 -0.4 2.9 -7.3 3.1 -3.8 0.1 -7.6 -0.1 -8.2 -0.3z"/>
  <path d="M184.3 86 c-2.8 -1.1 -3 -4.6 -0.4 -6 2.7 -1.4 9.4 -1.3 10.9 0.2 4.5 4.5 -3.3 8.7 -10.5 5.8z"/>
  <path d="M183.3 50.4 c-0.7 -0.3 -1.3 -1.6 -1.3 -2.9 0 -1.9 0.7 -2.5 3.4 -3 6 -1.2 8.1 -0.4 8.1 3 0 2.9 -0.2 3 -4.5 3.2 -2.5 0.1 -5.1 0 -5.7 -0.3z"/>
 </g>
</svg>