<?xml version="1.0" encoding="utf-8"?>
<!DOCTYPE svg PUBLIC "-//W3C//DTD SVG 1.0//EN" "http://www.w3.org/TR/2001/REC-SVG-20010904/DTD/svg10.dtd">
<svg version="1.0" xmlns="http://www.w3.org/2000/svg" width="260px" height="250px" viewBox="0 0 260 250" preserveAspectRatio="xMidYMid meet">
 <g fill="#392c1f">
  <path d="M104.7 212.9 c-3.7 -1 -8.4 -3 -10.5 -4.3 -4.4 -2.8 -17.2 -15.6 -17.2 -17.2 0 -0.6 -0.7 -1.7 -1.4 -2.4 -1.9 -1.5 -5.1 -8.2 -6.7 -14 -0.8 -2.6 -1.3 -10.5 -1.3 -19 l-0.1 -14.5 21.4 -53.5 c23.9 -59.4 24.3 -60.3 32.2 -60.3 3.7 0 4.8 0.5 7.2 3.4 3.3 3.8 43.7 103.2 45.6 111.8 1.4 6.4 1.4 19.3 0.1 28.4 -1.9 12.8 -11.5 27 -25.2 37 -8.6 6.3 -30.3 8.5 -44.1 4.6z m26.2 -12.5 c3.1 -0.9 6.7 -2.2 8 -2.8 4.8 -2.2 18.1 -16.6 18.1 -19.6 0 -0.6 0.9 -2.3 2 -3.8 3 -4.2 4.5 -18.1 2.7 -25.7 -1.3 -5.7 -40 -103.1 -41.6 -104.8 -0.4 -0.4 -9.8 22 -20.9 49.8 -22 55.1 -22.5 56.6 -20.4 71 1.3 8.9 6.7 18.7 15 26.8 4.8 4.7 7.3 6.4 12.8 8.3 8.2 2.8 16.5 3 24.3 0.8z"/>
 </g>
 <g fill="#4e3c2a">
  <path d="M103.6 202.6 c-8.4 -2.9 -16.6 -10.5 -22.8 -21.1 -4.8 -8.4 -6.3 -16.3 -5.5 -30.5 l0.5 -9.5 20.2 -50.5 c11.1 -27.7 20.8 -51.7 21.7 -53.3 1.4 -2.9 1.5 -2.9 3.3 -1.1 2.5 2.7 42.7 103.7 44.2 111.1 1.6 8.3 -0.3 25.5 -3.2 29.5 -1.1 1.5 -2 3.2 -2 3.8 0 3 -13.3 17.4 -18.1 19.6 -10.7 5 -27 5.8 -38.3 2z"/>
 </g>
</svg>